<svg height="56" viewBox="0 0 56 56" width="56" xmlns="http://www.w3.org/2000/svg" xmlns:xlink="http://www.w3.org/1999/xlink"><clipPath id="a"><rect height="56" rx="20" width="56" x=".372"/></clipPath><linearGradient id="b" gradientUnits="objectBoundingBox" x1=".145" x2=".951" y1=".31" y2=".828"><stop offset="0" stop-color="#6d6f71" stop-opacity=".6"/><stop offset=".192" stop-color="#959595" stop-opacity=".514"/><stop offset=".437" stop-color="#a7a7a7" stop-opacity=".235"/><stop offset=".704" stop-color="#828688" stop-opacity=".063"/><stop offset=".861" stop-color="#fff" stop-opacity="0"/><stop offset="1" stop-color="#fff" stop-opacity="0"/></linearGradient><linearGradient id="c" gradientUnits="objectBoundingBox" x1=".268" x2=".755" y1=".95" y2=".313"><stop offset="0" stop-color="#f7f7f7"/><stop offset=".498" stop-color="#f9f9f9"/><stop offset=".728" stop-color="#fff"/><stop offset="1" stop-color="#f7f7f7"/></linearGradient><radialGradient id="d" cx=".5" cy=".5" gradientTransform="matrix(.788 0 0 1 .106 0)" gradientUnits="objectBoundingBox" r=".571"><stop offset="0" stop-color="#ff7d00"/><stop offset=".129" stop-color="#ffbe00"/><stop offset=".265" stop-color="#ff7d00"/><stop offset=".394" stop-color="#ffbe00"/><stop offset=".508" stop-color="#ff7d00"/><stop offset=".625" stop-color="#ffbe00"/><stop offset=".745" stop-color="#ff7d00"/><stop offset=".869" stop-color="#ffbe00"/><stop offset="1" stop-color="#ff7d00"/></radialGradient><linearGradient id="e" gradientUnits="objectBoundingBox" x1=".817" x2=".121" y1=".549" y2=".135"><stop offset="0" stop-color="#f7f7f7"/><stop offset=".444" stop-color="#f9f9f9"/><stop offset=".649" stop-color="#fff"/><stop offset="1" stop-color="#f7f7f7"/></linearGradient><radialGradient id="f" cx=".5" cy=".5" gradientTransform="matrix(.788 0 0 1 .106 0)" gradientUnits="objectBoundingBox" r=".571"><stop offset="0" stop-color="#ffda87"/><stop offset=".128" stop-color="#ffd468"/><stop offset=".265" stop-color="#ffda87"/><stop offset=".394" stop-color="#ffd468"/><stop offset=".508" stop-color="#ffda87"/><stop offset=".625" stop-color="#ffd468"/><stop offset=".745" stop-color="#ffda87"/><stop offset=".869" stop-color="#ffd468"/><stop offset="1" stop-color="#ffda87"/></radialGradient><linearGradient id="g" x1=".147" x2=".766" xlink:href="#c" y1=".389" y2="1.004"/><linearGradient id="h" x1=".631" x2=".41" xlink:href="#c" y1=".2" y2=".645"/><linearGradient id="i" gradientUnits="objectBoundingBox" x1=".664" x2=".553" y1=".566" y2=".276"><stop offset="0" stop-color="#2db700"/><stop offset=".287" stop-color="#1da100"/><stop offset=".739" stop-color="#078500"/><stop offset="1" stop-color="#007b00"/></linearGradient><linearGradient id="j" gradientUnits="objectBoundingBox" x1=".683" x2=".117" y1=".355" y2=".492"><stop offset="0" stop-color="#2dcb00"/><stop offset="1" stop-color="#007b00"/></linearGradient><linearGradient id="k" x1=".182" x2=".857" xlink:href="#j" y1=".855" y2=".529"/><linearGradient id="l" x1=".284" x2=".523" xlink:href="#j" y1=".103" y2=".941"/><linearGradient id="m" gradientUnits="objectBoundingBox" x1=".057" x2="1.005" y1=".841" y2=".353"><stop offset="0" stop-color="#d86319"/><stop offset=".765" stop-color="#ffa700"/><stop offset="1" stop-color="#d86319"/></linearGradient><linearGradient id="n" gradientUnits="objectBoundingBox" x1=".479" x2=".545" y1=".126" y2="1.264"><stop offset="0" stop-color="#fff400"/><stop offset="1" stop-color="#ffa400"/></linearGradient><g transform="translate(-.372)"><rect fill="#f8f9fb" height="56" rx="20" width="56" x=".372"/><g clip-path="url(#a)"><path d="m591.344 639.147 31.415-3.328-12.289-10.346-37.756.736z" fill="url(#b)" transform="translate(-564.646 -591.918)"/><path d="m663.977 496.4-5.312 15.714a19.5 19.5 0 0 1 -7-1.323 13.025 13.025 0 0 1 -5.074-3.5z" fill="url(#c)" transform="translate(-635.7 -469.934)"/><path d="m621.766 336.384 1.208 2.869c1.947 4.625.8 10.469-3.725 15.775-7.438 8.716-21.19 12.679-30.716 8.851a13.08 13.08 0 0 1 -7.507-6.939l-1.208-2.869a13.08 13.08 0 0 0 7.507 6.939c9.526 3.828 23.278-.135 30.716-8.851 4.528-5.306 5.672-11.15 3.725-15.775z" fill="#ffda87" transform="translate(-572.592 -318.706)"/><path d="m582.927 171.45c9.937 3.993 11.7 14.6 3.944 23.693s-22.1 13.226-32.041 9.233-11.7-14.6-3.944-23.694 22.104-13.225 32.041-9.232zm-27.516 32.25c9.526 3.828 23.278-.134 30.716-8.851s5.745-18.885-3.781-22.714-23.279.134-30.717 8.851-5.745 18.886 3.781 22.714" fill="url(#d)" transform="translate(-540.679 -161.391)"/><path d="m963.281 496.582 9.81 11.288a25.429 25.429 0 0 0 5.772-4.947 18.267 18.267 0 0 0 3.519-6.041z" fill="url(#e)" transform="translate(-934.996 -470.106)"/><path d="m564.254 209.791c.031.068.061.137.093.2q.131.277.277.547c.015.027.028.055.043.082.113.206.235.409.361.609.036.057.075.113.112.169q.143.217.3.43.069.1.141.191c.106.14.216.277.328.413.044.053.087.108.133.161.158.185.322.367.494.544l.057.056q.232.236.48.463c.057.052.116.1.174.155q.2.18.416.353c.063.051.125.1.19.153q.247.195.508.38c.04.028.078.058.119.087q.324.227.67.44c.054.033.11.065.164.1q.267.16.544.313c.079.043.16.086.24.128q.267.14.544.272c.073.035.146.071.22.106.26.12.524.236.8.345 9.526 3.828 23.278-.135 30.716-8.851l.021-.025c.252-.3.492-.6.724-.895.079-.1.153-.206.23-.308.155-.208.307-.417.453-.626.082-.118.162-.237.241-.356q.2-.3.389-.607c.07-.114.141-.227.208-.341.135-.229.262-.457.385-.686.047-.087.1-.174.142-.261q.243-.469.454-.938c.033-.074.061-.148.093-.222.1-.242.205-.484.3-.726.042-.111.08-.222.12-.332.074-.208.144-.416.209-.623.036-.116.071-.232.1-.348.06-.21.114-.419.164-.628.026-.106.053-.211.076-.316q.087-.4.149-.792c.008-.046.018-.093.025-.139.046-.307.08-.613.105-.917.008-.091.01-.182.016-.273.013-.214.023-.428.026-.64 0-.111 0-.22 0-.33q0-.293-.021-.582c-.006-.108-.012-.217-.022-.325-.018-.208-.043-.414-.071-.619-.012-.087-.021-.174-.035-.261-.046-.288-.1-.573-.167-.854-.01-.044-.024-.086-.035-.13-.059-.239-.125-.475-.2-.708-.009-.027-.019-.053-.027-.08-.022-.066-.046-.131-.068-.2-.064-.184-.13-.366-.2-.545a13.032 13.032 0 0 0 -7.561-7.084 21.5 21.5 0 0 0 -7.772-1.458 29.226 29.226 0 0 0 -8.369 1.179q-.521.15-1.039.319c-.792.258-1.577.551-2.351.871a31.986 31.986 0 0 0 -4.236 2.132c-.43.258-.856.523-1.272.8-.476.319-.939.654-1.394 1-.414.313-.823.633-1.218.967q-.83.7-1.6 1.462l-.023.024q-.754.749-1.443 1.554a22.375 22.375 0 0 0 -2.364 3.321q-.243.42-.459.841a17.992 17.992 0 0 0 -.761 1.685 13.389 13.389 0 0 0 -.532 8.854 11.421 11.421 0 0 0 .486 1.32zm1.722-9.459a18.357 18.357 0 0 1 3.478-5.918 25.5 25.5 0 0 1 5.934-5.048 28.228 28.228 0 0 1 15.109-4.312 19.432 19.432 0 0 1 6.858 1.321 13.029 13.029 0 0 1 5.066 3.495 11.1 11.1 0 0 1 1.887 11.1 18.271 18.271 0 0 1 -3.519 6.041 25.428 25.428 0 0 1 -5.772 4.947 28.276 28.276 0 0 1 -15.13 4.415 19.494 19.494 0 0 1 -7-1.323 13.026 13.026 0 0 1 -5.074-3.5 11.131 11.131 0 0 1 -1.838-11.21" fill="url(#f)" transform="translate(-556.92 -174.188)"/><path d="m622.536 290.844 9.806 11.284-19.217-.317a18.359 18.359 0 0 1 3.478-5.918 25.506 25.506 0 0 1 5.933-5.049z" fill="url(#g)" transform="translate(-604.069 -275.667)"/><path d="m975.544 213.655a13.03 13.03 0 0 1 5.066 3.495l-17.21 10.775 5.283-15.591a19.432 19.432 0 0 1 6.861 1.321z" fill="url(#h)" transform="translate(-935.111 -201.469)"/><path d="m799.6 212.255-5.283 15.591-9.826-11.28a28.228 28.228 0 0 1 15.109-4.311z" fill="url(#i)" transform="translate(-766.03 -201.39)"/><path d="m619.724 490.837-17.379 10.893a11.13 11.13 0 0 1 -1.838-11.21z" fill="url(#j)" transform="translate(-591.452 -464.377)"/><path d="m980.592 300.018a11.1 11.1 0 0 1 1.887 11.1l-19.1-.315z" fill="url(#k)" transform="translate(-935.093 -284.337)"/><path d="m871.729 496.581 9.81 11.288a28.277 28.277 0 0 1 -15.13 4.415z" fill="url(#l)" transform="translate(-843.443 -470.105)"/><path d="m607.1 329.438 1.208 2.869c2.031 4.824.837 10.92-3.886 16.455-7.759 9.092-22.1 13.226-32.041 9.233a13.645 13.645 0 0 1 -7.831-7.238l-1.208-2.869a13.645 13.645 0 0 0 7.831 7.238c9.937 3.993 24.282-.14 32.041-9.233 4.725-5.535 5.918-11.631 3.886-16.455z" fill="url(#m)" transform="translate(-557.023 -312.142)"/><path d="m1056.851 174.474-.078-.177a.821.821 0 0 1 .591-.03.413.413 0 0 1 .24.214l.078.177a.413.413 0 0 0 -.24-.214.821.821 0 0 0 -.591.03z" fill="#ffb31c" transform="translate(-1023.353 -165.452)"/><path d="m1047.848 175.974a.48.48 0 0 0 -.107.5l-.078-.177a.479.479 0 0 1 .106-.5.927.927 0 0 1 .364-.263l.006.014v.007l.007.015.007.015.007.015.007.015.006.015.006.014v.01.007.008.008.008.008.007s0 0 0 0a.925.925 0 0 0 -.331.274z" fill="#ffb31c" transform="translate(-1014.714 -166.689)"/><path d="m1049.5 178.891.078.177a.479.479 0 0 1 -.106.5.913.913 0 0 1 -.955.293.41.41 0 0 1 -.239-.214l-.078-.177a.413.413 0 0 0 .24.214.912.912 0 0 0 .955-.293.479.479 0 0 0 .105-.5z" fill="#feffc5" transform="translate(-1015.253 -169.862)"/><path d="m1043.428 169.649a.617.617 0 0 1 .195 1.043 1.339 1.339 0 0 1 -1.4.43.616.616 0 0 1 -.195-1.043 1.339 1.339 0 0 1 1.4-.43zm-1.015 1.239a.912.912 0 0 0 .955-.293.42.42 0 0 0 -.133-.711.912.912 0 0 0 -.955.293.42.42 0 0 0 .133.711" fill="#ffb31c" transform="translate(-1009.224 -161.07)"/><path d="m1048.725 174.266a.42.42 0 0 1 .133.711.913.913 0 0 1 -.955.293.42.42 0 0 1 -.133-.711.912.912 0 0 1 .955-.293z" fill="#feffc5" transform="translate(-1014.714 -165.451)"/><path d="m1044.57 176.433.078.177a.7.7 0 0 1 -.157.729 1.339 1.339 0 0 1 -1.4.43.606.606 0 0 1 -.352-.315l-.078-.177a.605.605 0 0 0 .351.315 1.339 1.339 0 0 0 1.4-.43.7.7 0 0 0 .158-.729z" fill="#f4a11c" transform="translate(-1010.015 -167.539)"/><g fill="#ffb31c"><path d="m762.95 266.123-.078-.177c.031-.013.061-.024.093-.033l.009.021.01.022.01.023.006.021.01.023.01.023.01.022.009.021c-.027.011-.058.021-.089.034z" transform="translate(-745.593 -252.104)"/><path d="m760.29 266.7a.983.983 0 0 0 -.155.081l-.039-.089-.039-.088a.992.992 0 0 1 .155-.081l.006.013.006.014.006.015.006.015.007.015.006.015.006.014.006.013v.007.008.008.008.008.008.008z" transform="translate(-742.932 -252.68)"/><path d="m764.784 265.5a.941.941 0 0 0 -.145.033l-.078-.177a.951.951 0 0 1 .145-.033v.012l.005.012.006.013.006.013.006.013.006.013.005.012.005.011v.009.01.01.01.01.01.01z" transform="translate(-747.188 -251.543)"/><path d="m767.285 265.348-.078-.177a.849.849 0 0 1 .116-.009l.009.021.01.022.01.023.01.023.01.023.01.023.01.022.009.021a.859.859 0 0 0 -.116.008z" transform="translate(-749.69 -251.395)"/><path d="m756.58 268.35-.078-.177a.883.883 0 0 1 .2-.17l.009.021.01.022.01.023.01.023.01.023.01.023.01.022.009.021a.879.879 0 0 0 -.2.169z" transform="translate(-739.572 -254.08)"/><path d="m756.452 271.273-.008.009-.078-.177.007-.009z" transform="translate(-739.444 -257.003)"/><path d="m769.635 265.381a.671.671 0 0 0 -.244-.042l-.078-.177a.674.674 0 0 1 .244.042.412.412 0 0 1 .239.214l.078.177a.412.412 0 0 0 -.239-.214z" transform="translate(-751.68 -251.395)"/><path d="m754.066 271.437a.48.48 0 0 0 -.107.5l-.078-.177a.48.48 0 0 1 .107-.5l.009.021.01.022.01.023.01.023.01.023.01.023.01.022.009.021z" transform="translate(-737.066 -257.158)"/></g><path d="m755.721 269.829.078.177a.48.48 0 0 1 -.107.5.912.912 0 0 1 -.955.293.412.412 0 0 1 -.239-.214l-.078-.177a.412.412 0 0 0 .239.214.912.912 0 0 0 .955-.293.48.48 0 0 0 .107-.5z" fill="#feffc5" transform="translate(-737.605 -255.805)"/><path d="m749.648 260.594a.616.616 0 0 1 .195 1.043 1.338 1.338 0 0 1 -1.4.43.616.616 0 0 1 -.195-1.043 1.339 1.339 0 0 1 1.4-.43zm-1.015 1.239a.912.912 0 0 0 .955-.293.42.42 0 0 0 -.133-.711.912.912 0 0 0 -.955.293.42.42 0 0 0 .133.711" fill="#ffb31c" transform="translate(-731.579 -247.019)"/><path d="m754.943 265.2a.42.42 0 0 1 .133.711.912.912 0 0 1 -.955.293.42.42 0 0 1 -.133-.711.912.912 0 0 1 .955-.293z" fill="#feffc5" transform="translate(-737.066 -251.395)"/><path d="m750.79 267.38.078.177a.7.7 0 0 1 -.157.728 1.338 1.338 0 0 1 -1.4.43.605.605 0 0 1 -.352-.315l-.078-.177a.6.6 0 0 0 .351.315 1.338 1.338 0 0 0 1.4-.43.7.7 0 0 0 .158-.728z" fill="#f4a11c" transform="translate(-732.369 -253.491)"/><g fill="#ffb31c"><path d="m584.226 484.723-.078-.177c.024-.009.049-.018.074-.026l.009.021.01.022.01.023.01.023.01.023.01.023.01.022.009.021c-.025.002-.05.015-.074.025z" transform="translate(-576.685 -458.706)"/><path d="m581.237 485.166a1 1 0 0 0 -.174.089l-.078-.177a1 1 0 0 1 .174-.089z" transform="translate(-573.695 -459.149)"/><path d="m585.72 484.082a.953.953 0 0 0 -.154.034l-.078-.177a.958.958 0 0 1 .154-.034z" transform="translate(-577.951 -458.124)"/><path d="m588.369 483.954-.078-.177a.827.827 0 0 1 .107-.007l.009.021.01.022.01.023.01.023.01.023.01.023.01.022.009.021a.849.849 0 0 0 -.107.006z" transform="translate(-580.6 -457.997)"/><path d="m590.563 483.989a.675.675 0 0 0 -.244-.042l-.078-.177a.672.672 0 0 1 .244.042.412.412 0 0 1 .24.214l.078.177a.412.412 0 0 0 -.24-.214z" transform="translate(-582.443 -457.997)"/><path d="m574.994 486.966a.479.479 0 0 0 -.107.5l-.078-.177a.48.48 0 0 1 .107-.5.872.872 0 0 1 .2-.179l.009.021.01.022.01.023.01.023.01.023.01.023.01.022.009.021a.875.875 0 0 0 -.2.178z" transform="translate(-567.829 -460.681)"/></g><path d="m576.649 488.437.078.177a.479.479 0 0 1 -.107.5.912.912 0 0 1 -.955.293.411.411 0 0 1 -.239-.214l-.078-.177a.412.412 0 0 0 .239.214.912.912 0 0 0 .955-.293.48.48 0 0 0 .107-.5z" fill="#feffc5" transform="translate(-568.368 -462.407)"/><path d="m575.871 483.812a.42.42 0 0 1 .133.711.912.912 0 0 1 -.955.293.42.42 0 0 1 -.133-.711.912.912 0 0 1 .955-.293z" fill="#feffc5" transform="translate(-567.829 -457.997)"/><path d="m570.579 479.2a.616.616 0 0 1 .195 1.043 1.339 1.339 0 0 1 -1.4.43.616.616 0 0 1 -.195-1.043 1.338 1.338 0 0 1 1.4-.43zm-1.015 1.239a.912.912 0 0 0 .955-.293.42.42 0 0 0 -.133-.711.912.912 0 0 0 -.955.293.42.42 0 0 0 .133.711" fill="#ffb31c" transform="translate(-562.344 -453.621)"/><path d="m571.721 485.988.078.177a.7.7 0 0 1 -.157.728 1.339 1.339 0 0 1 -1.4.43.6.6 0 0 1 -.351-.315l-.078-.177a.6.6 0 0 0 .351.315 1.339 1.339 0 0 0 1.4-.43.7.7 0 0 0 .157-.728z" fill="#f4a11c" transform="translate(-563.135 -460.093)"/><path d="m626.075 703.022a.789.789 0 0 0 -.5 0l-.078-.177a.787.787 0 0 1 .5 0 .413.413 0 0 1 .239.214l.078.177a.412.412 0 0 0 -.239-.214z" fill="#ffb31c" transform="translate(-615.758 -665.001)"/><path d="m615 704.023a.48.48 0 0 0 -.107.5l-.078-.177a.48.48 0 0 1 .107-.5.946.946 0 0 1 .45-.294l.009.021.01.022.01.023.01.023.01.023.01.023.01.022.009.021a.944.944 0 0 0 -.45.293z" fill="#ffb31c" transform="translate(-605.636 -665.709)"/><path d="m616.653 707.469.078.177a.48.48 0 0 1 -.107.5.912.912 0 0 1 -.955.293.412.412 0 0 1 -.24-.214l-.078-.177a.412.412 0 0 0 .24.214.912.912 0 0 0 .955-.293.48.48 0 0 0 .107-.5z" fill="#feffc5" transform="translate(-606.175 -669.41)"/><path d="m615.875 702.844a.42.42 0 0 1 .133.711.912.912 0 0 1 -.955.293.42.42 0 0 1 -.133-.711.912.912 0 0 1 .955-.293z" fill="#feffc5" transform="translate(-605.636 -665)"/><path d="m610.578 698.233a.616.616 0 0 1 .195 1.043 1.339 1.339 0 0 1 -1.4.43.616.616 0 0 1 -.195-1.043 1.339 1.339 0 0 1 1.4-.43zm-1.015 1.239a.912.912 0 0 0 .955-.293.42.42 0 0 0 -.133-.711.912.912 0 0 0 -.955.293.42.42 0 0 0 .133.711" fill="#ffb31c" transform="translate(-600.147 -660.624)"/><path d="m611.72 705.019.078.177a.7.7 0 0 1 -.156.729 1.338 1.338 0 0 1 -1.4.43.6.6 0 0 1 -.352-.315l-.078-.177a.6.6 0 0 0 .352.315 1.339 1.339 0 0 0 1.4-.43.7.7 0 0 0 .156-.729z" fill="#f4a11c" transform="translate(-600.937 -667.095)"/><path d="m863.214 794.051a.787.787 0 0 0 -.5 0l-.078-.177a.788.788 0 0 1 .5 0 .412.412 0 0 1 .239.214l.078.177a.413.413 0 0 0 -.239-.214z" fill="#ffb31c" transform="translate(-839.874 -751.031)"/><path d="m852.136 795.052a.48.48 0 0 0 -.107.5l-.078-.177a.479.479 0 0 1 .107-.5.947.947 0 0 1 .45-.294l.009.021.01.022.01.023.01.023.01.023.01.023.01.022.009.021a.946.946 0 0 0 -.45.293z" fill="#ffb31c" transform="translate(-829.752 -751.739)"/><path d="m853.792 798.5.078.177a.48.48 0 0 1 -.107.5.912.912 0 0 1 -.955.293.412.412 0 0 1 -.24-.214l-.078-.177a.412.412 0 0 0 .239.214.913.913 0 0 0 .955-.293.479.479 0 0 0 .108-.5z" fill="#feffc5" transform="translate(-830.291 -755.439)"/><ellipse cx=".711" cy=".505" fill="#feffc5" rx=".711" ry=".505" transform="matrix(.91486808 -.40375288 .40375288 .91486808 21.996 43.17)"/><path d="m847.717 789.263a.617.617 0 0 1 .2 1.043 1.338 1.338 0 0 1 -1.4.43.616.616 0 0 1 -.195-1.043 1.339 1.339 0 0 1 1.395-.43zm-1.017 1.237a.912.912 0 0 0 .955-.293.42.42 0 0 0 -.133-.711.913.913 0 0 0 -.955.293.42.42 0 0 0 .133.711" fill="#ffb31c" transform="translate(-824.262 -746.654)"/><path d="m848.859 796.051.078.177a.7.7 0 0 1 -.156.728 1.339 1.339 0 0 1 -1.4.43.606.606 0 0 1 -.352-.315l-.078-.177a.606.606 0 0 0 .352.315 1.339 1.339 0 0 0 1.4-.43.7.7 0 0 0 .156-.728z" fill="#f4a11c" transform="translate(-825.053 -753.128)"/><g fill="#ffb31c"><path d="m1161.524 703.546-.018-.041-.032-.073-.016-.037-.008-.017s0-.005 0-.008h.047l.009.021.01.022.01.023.01.023.01.023.01.023.01.022.009.021z" transform="translate(-1122.277 -665.534)"/><path d="m1150.1 703.573a.963.963 0 0 0 -.664.333l-.078-.177a.962.962 0 0 1 .664-.333l.008.017.008.018.008.019.008.019.008.019.008.019.008.018.008.017z" transform="translate(-1110.858 -665.561)"/><path d="m1162.632 703.586a.67.67 0 0 0 -.244-.042l-.044-.1-.015-.034-.01-.022a.119.119 0 0 1 -.009-.021.675.675 0 0 1 .244.042.412.412 0 0 1 .239.214l.078.177a.41.41 0 0 0 -.239-.214z" transform="translate(-1123.094 -665.534)"/><path d="m1147.064 709.642a.479.479 0 0 0 -.107.5l-.078-.177a.48.48 0 0 1 .107-.5l.009.021.01.022.01.023.01.023.01.023.01.023.01.022.009.021z" transform="translate(-1108.481 -671.297)"/></g><path d="m1148.718 708.033.078.177a.48.48 0 0 1 -.106.5.912.912 0 0 1 -.955.293.412.412 0 0 1 -.239-.214l-.078-.177a.413.413 0 0 0 .24.214.913.913 0 0 0 .955-.293.48.48 0 0 0 .105-.5z" fill="#feffc5" transform="translate(-1109.019 -669.943)"/><path d="m1142.641 698.8a.616.616 0 0 1 .2 1.043 1.34 1.34 0 0 1 -1.4.43.617.617 0 0 1 -.2-1.043 1.338 1.338 0 0 1 1.4-.43zm-1.014 1.239a.912.912 0 0 0 .955-.293.42.42 0 0 0 -.133-.711.912.912 0 0 0 -.955.293.42.42 0 0 0 .133.711" fill="#ffb31c" transform="translate(-1102.989 -661.156)"/><path d="m1147.941 703.409a.42.42 0 0 1 .133.711.912.912 0 0 1 -.955.293.42.42 0 0 1 -.133-.711.912.912 0 0 1 .955-.293z" fill="#feffc5" transform="translate(-1108.48 -665.534)"/><path d="m1143.784 705.585.078.177a.7.7 0 0 1 -.157.729 1.339 1.339 0 0 1 -1.4.43.606.606 0 0 1 -.352-.315l-.078-.177a.606.606 0 0 0 .352.315 1.34 1.34 0 0 0 1.4-.43.7.7 0 0 0 .157-.729z" fill="#f4a11c" transform="translate(-1103.78 -667.63)"/><g fill="#ffb31c"><path d="m1336.948 485.137a.933.933 0 0 0 -.1.024l-.078-.177a.941.941 0 0 1 .1-.024l.006.013.006.014.006.014.006.015.006.015.006.014.006.014.006.013v.008.008.008.009.008.008.008z" transform="translate(-1287.976 -459.122)"/><path d="m1338.587 484.842-.078-.177a.869.869 0 0 1 .166-.017l.009.021.01.022.01.023.01.023.01.023.01.023.01.022.009.021a.882.882 0 0 0 -.166.016z" transform="translate(-1289.616 -458.827)"/><path d="m1341.85 484.867a.674.674 0 0 0 -.244-.042l-.078-.177a.678.678 0 0 1 .244.042.413.413 0 0 1 .24.215l.078.177a.413.413 0 0 0 -.24-.215z" transform="translate(-1292.469 -458.827)"/><path d="m1326.281 485.869a.48.48 0 0 0 -.107.5l-.078-.177a.479.479 0 0 1 .106-.5.946.946 0 0 1 .45-.294l.009.021.01.022.01.023.01.023.01.023.01.023.01.022.009.021a.943.943 0 0 0 -.449.293z" transform="translate(-1277.855 -459.536)"/></g><path d="m1327.935 489.314.078.177a.479.479 0 0 1 -.107.5.912.912 0 0 1 -.955.293.412.412 0 0 1 -.24-.215l-.078-.177a.413.413 0 0 0 .24.214.912.912 0 0 0 .955-.293.48.48 0 0 0 .107-.499z" fill="#feffc5" transform="translate(-1278.393 -463.236)"/><path d="m1327.158 484.69a.42.42 0 0 1 .133.711.912.912 0 0 1 -.955.293.42.42 0 0 1 -.133-.711.911.911 0 0 1 .955-.293z" fill="#feffc5" transform="translate(-1277.855 -458.827)"/><path d="m1321.861 480.08a.616.616 0 0 1 .195 1.043 1.338 1.338 0 0 1 -1.4.431.617.617 0 0 1 -.194-1.043 1.339 1.339 0 0 1 1.399-.431zm-1.014 1.239a.912.912 0 0 0 .955-.293.42.42 0 0 0 -.133-.711.912.912 0 0 0 -.955.293.42.42 0 0 0 .133.711" fill="#ffb31c" transform="translate(-1272.366 -454.452)"/><path d="m1323 486.865.078.177a.7.7 0 0 1 -.157.729 1.339 1.339 0 0 1 -1.4.431.6.6 0 0 1 -.351-.315l-.078-.177a.6.6 0 0 0 .351.315 1.339 1.339 0 0 0 1.4-.431.7.7 0 0 0 .157-.729z" fill="#f4a11c" transform="translate(-1273.156 -460.922)"/><path d="m1286.746 269.958.078.177a.48.48 0 0 1 -.107.5.912.912 0 0 1 -.955.293.411.411 0 0 1 -.239-.214l-.078-.177a.412.412 0 0 0 .239.214.912.912 0 0 0 .955-.293.48.48 0 0 0 .107-.5z" fill="#feffc5" transform="translate(-1239.467 -255.928)"/><ellipse cx=".711" cy=".505" fill="#feffc5" rx=".711" ry=".505" transform="matrix(.915 -.404 .404 .915 45.774 14.143)"/><path d="m1280.67 260.718a.617.617 0 0 1 .195 1.044 1.339 1.339 0 0 1 -1.4.43.617.617 0 0 1 -.195-1.043 1.34 1.34 0 0 1 1.4-.431zm-1.015 1.239a.913.913 0 0 0 .955-.293.42.42 0 0 0 -.133-.711.912.912 0 0 0 -.955.293.42.42 0 0 0 .133.711" fill="#ffb31c" transform="translate(-1233.437 -247.137)"/><path d="m1281.812 267.505.078.177a.7.7 0 0 1 -.156.729 1.34 1.34 0 0 1 -1.4.43.606.606 0 0 1 -.351-.315l-.078-.177a.606.606 0 0 0 .352.315 1.339 1.339 0 0 0 1.4-.43.705.705 0 0 0 .155-.729z" fill="#f4a11c" transform="translate(-1234.228 -253.61)"/><path d="m899.352 456.3-.448 1.9 1.552.9.124.072-2.366.7-1.1 1.853-1.015-1.463-2.353.17.142-.132 1.6-1.475-.013-.062-.346-1.686.085.019 2 .451z" fill="#ff8706" transform="translate(-869.284 -432.037)"/><path d="m864.765 493.009a3.343 3.343 0 0 1 -1.942-1.738l-.156-.354a3.343 3.343 0 0 0 1.942 1.739c2.437.935 5.905-.129 7.748-2.378a4.7 4.7 0 0 0 1.093-2.38l.018.041.019.044.02.046.02.046.021.046.02.045.019.044.018.041a4.7 4.7 0 0 1 -1.093 2.38c-1.842 2.248-5.312 3.313-7.747 2.378z" fill="#ffe800" transform="translate(-839.907 -461.897)"/><path d="m858.015 412.682c2.672 1.026 3.2 3.857 1.181 6.323s-5.825 3.634-8.5 2.608-3.2-3.857-1.181-6.323 5.827-3.634 8.5-2.608zm-6.994 8.538c2.437.935 5.905-.129 7.748-2.378 1.7-2.075 1.42-4.434-.549-5.521l-.089-.047-.06-.03-.028-.014-.156-.072-.194-.08c-2.437-.935-5.906.129-7.747 2.378l-.021.026c-.383.526-.441.619-.495.712-1.2 2.05-.581 4.194 1.593 5.028" fill="#ea7618" transform="translate(-826.32 -390.461)"/><path d="m869.1 429.387a3.181 3.181 0 0 0 -2.166-2.536c-2.437-.936-5.906.129-7.747 2.378a4.434 4.434 0 0 0 -1.118 2.874c0-.036-.009-.072-.013-.109a3.169 3.169 0 0 0 2.18 2.647c2.436.935 5.905-.129 7.747-2.378a4.432 4.432 0 0 0 1.117-2.876zm-2.271 1.633-2.366.7-1.1 1.853-1.015-1.463-2.353.17.142-.132-.087.006 1.67-1.543-.346-1.686.085.019-.03-.145 2.089.47 2.131-1.251-.448 1.9 1.676.975-.18.053.124.072m-8.788.748c0-.036 0-.073 0-.11.007.038.008.075.009.111zm0 .107c0-.036 0-.071 0-.107.01.041.012.077.014.113zm.009.112q-.005-.054-.009-.107c.017.042.02.078.024.113z" fill="url(#n)" transform="translate(-835.535 -403.883)"/><path d="m864.936 453.814.156.354a4.269 4.269 0 0 1 -.949 4.416c-2.021 2.467-5.825 3.634-8.5 2.608a3.666 3.666 0 0 1 -2.13-1.907l-.156-.354a3.666 3.666 0 0 0 2.13 1.907c2.673 1.026 6.477-.141 8.5-2.608a4.269 4.269 0 0 0 .949-4.416z" fill="#c65f12" transform="translate(-831.112 -429.687)"/><path d="m858.642 423.543-.049.085-.016.03-.032.059-.018.034-.029.056-.018.035-.029.059-.015.03-.04.086-.011.026-.027.063-.015.037-.021.052-.016.04-.019.049-.015.04-.018.051-.013.038c-.009.027-.018.055-.027.082l-.013.042-.013.044-.013.047-.011.04-.012.048-.009.038-.012.05-.007.031c-.014.064-.026.127-.037.19v.025c0 .02-.006.039-.009.059v.024c0 .02-.005.04-.008.06s0 .013 0 .019a3.288 3.288 0 0 0 .007.817 4.433 4.433 0 0 1 1.118-2.874c1.842-2.249 5.311-3.313 7.748-2.378a3.18 3.18 0 0 1 2.166 2.536s0-.008 0-.012c0-.027 0-.054 0-.081v-.02c0-.026 0-.052-.006-.077 0-.007 0-.015 0-.022 0-.025 0-.051-.008-.076 0-.008 0-.015 0-.023 0-.025-.007-.05-.01-.076v-.021c0-.026-.009-.052-.013-.078v-.018c-.005-.028-.011-.055-.017-.083v-.012a2.939 2.939 0 0 0 -.184-.559q-.019-.043-.04-.086v-.005l-.042-.083q-.022-.042-.046-.083a3.258 3.258 0 0 0 -1.276-1.22l-.086-.046-.057-.029h-.005l-.046-.022-.13-.06-.194-.08a5.572 5.572 0 0 0 -2.237-.333q-.14.006-.281.018c-.123.01-.247.024-.37.041h-.033q-.312.044-.623.116l-.056.013q-.23.054-.457.123l-.2.064q-.162.054-.322.114-.1.038-.2.079l-.18.076q-.308.135-.6.294-.151.081-.3.169a7.18 7.18 0 0 0 -1.881 1.6l-.068.09c-.29.4-.373.524-.424.606l-.024.041z" fill="#fffbbf" transform="translate(-835.535 -397.81)"/><path d="m923.672 455.918 1.675.975-.179.053-1.552-.9.448-1.9-2.131 1.251-2-.451-.03-.145 2.089.47 2.131-1.251z" fill="#fff96a" transform="translate(-893.996 -429.882)"/><path d="m894.855 502.754 1.6-1.475-.013-.062-1.67 1.543.023.052.053-.049z" fill="#ffe800" transform="translate(-870.246 -474.486)"/><path d="m894.769 502.76 1.67-1.543.013.062-1.6 1.475z" fill="#fff96a" transform="translate(-870.246 -474.486)"/><path d="m1153.263 166.025a2.254 2.254 0 0 0 -.291.261l-.276-.625-.037-.083a2.825 2.825 0 0 1 1.036-.671l.312.708-.312-.708a3.587 3.587 0 0 1 .427-.137l.313.708-.312-.708a3.549 3.549 0 0 1 .445-.083l.037.083.039.088.04.091.041.093.041.093.04.091.039.088.036.083-.312-.708a3.222 3.222 0 0 1 .45-.023l.037.083.038.088.04.091.041.093.041.093.04.091.039.088.036.083-.312-.708a2.781 2.781 0 0 1 .441.044l.036.083.039.088.04.091.041.093.041.093.04.091.039.088.036.083-.312-.708a2.346 2.346 0 0 1 .419.116l.313.708a3.275 3.275 0 0 0 -2.929.493l-.312-.708.018.041.019.042.039.088.04.091.041.093.041.093.04.091.038.088zm.037-.934.018.041.019.042.019.043.02.044.02.045.02.046.02.046.021.046.021.046.02.046.02.046.02.045.02.044.019.043.019.042.018.041-.018-.041-.019-.042-.019-.043-.02-.044-.02-.045-.02-.046-.02-.046-.021-.046-.021-.046-.02-.046-.02-.046-.02-.045-.02-.044-.019-.043-.019-.042z" fill="#ff7a00" transform="translate(-1113.974 -156.417)"/><g fill="#ffbe00"><path d="m1189.818 179.758-.057.008-.312-.708.057-.008.027.062.029.066.03.068.031.07.031.07.03.068.029.066.027.062.009.021.009.022.01.023.01.023.01.023.01.023.01.022z" transform="translate(-1148.742 -170.013)"/><path d="m1190.795 179.57-.313-.708a1.478 1.478 0 0 1 .171-.011l.036.083.039.088.04.091.041.093.041.093.04.091.039.088.036.083a1.492 1.492 0 0 0 -.17.009z" transform="translate(-1149.719 -169.825)"/><path d="m1194.121 179.576a1.294 1.294 0 0 0 -.217-.017l-.312-.708a1.283 1.283 0 0 1 .216.017l.036.081.038.086.04.089.04.091.04.091.039.089.038.086.036.081v.011z" transform="translate(-1152.658 -169.825)"/><path d="m1197.843 179.864-.312-.708.037.083.039.088.04.091.041.093.041.093.04.091.038.088.037.083z" transform="translate(-1156.38 -170.113)"/></g><path d="m1211.6 168.3-.312-.708a1.866 1.866 0 0 1 .333.166l.032.072.034.076.035.079.036.081.036.081.035.079.034.076.032.072v.005.005.011l.005.012.005.012.005.012.005.012.005.011v.011a1.869 1.869 0 0 0 -.333-.166z" fill="#ff7a00" transform="translate(-1169.38 -159.182)"/><path d="m1217.615 171.226-.272-.616c.043.027.084.056.123.086l.313.708c-.039-.03-.08-.059-.123-.087z" fill="#ff7a00" transform="translate(-1175.105 -162.036)"/><path d="m1219.914 172.9-.011-.009-.313-.708.012.009.015.033.008.017.015.035.008.018.016.037.008.019.017.038.008.019.017.038.008.019.012.027v.008l.007.016v.008l.007.016v.008l.007.016v.008l.007.015v.007l.006.015.007.017.016.035.008.018.017.037.009.019.017.038.009.019.016.037.008.018.015.035z" fill="#ff7a00" transform="translate(-1177.228 -163.525)"/><path d="m1167.766 180.469a1.1 1.1 0 0 0 -.206.372l-.312-.708a1.1 1.1 0 0 1 .205-.372 1.678 1.678 0 0 1 1.014-.566l.037.083.038.088.04.091.041.093.041.093.04.091.039.088.036.083a1.676 1.676 0 0 0 -1.013.564z" fill="#ffbe00" transform="translate(-1127.761 -170.15)"/><path d="m1219.99 172.771-.184-.417c.028.022.054.044.079.067l.177.4.136.308c-.026-.023-.052-.045-.08-.067z" fill="#ff7a00" transform="translate(-1177.432 -163.684)"/><path d="m1221.572 174.292-.008-.007-.312-.708.008.007.021.048.011.025.023.052.011.026.024.054.012.027.023.053.012.026.022.051.01.024.015.033v.01l.009.02v.01l.009.021v.01l.009.021v.011l.01.022v.011l.01.022v.009l.008.017v.009l.007.017v.008l.008.017v.008l.007.016v.008l.007.016z" fill="#ff7a00" transform="translate(-1178.798 -164.84)"/><path d="m1198.118 179.931a1.074 1.074 0 0 0 -.206-.056l-.313-.708a1.081 1.081 0 0 1 .206.056.72.72 0 0 1 .418.375l.313.708a.719.719 0 0 0 -.418-.375z" fill="#ffbe00" transform="translate(-1156.445 -170.123)"/><path d="m1166.1 196.971a.744.744 0 0 0 -.03.623l-.313-.708c0-.011-.009-.021-.013-.032l.1.216.217.492-.312-.708a.67.67 0 0 1 -.04-.284l.018.041.018.042.039.088.04.091.041.093.041.093.04.091.039.088.037.083-.312-.708a.864.864 0 0 1 .083-.307z" fill="#ffbe00" transform="translate(-1126.297 -186.28)"/><path d="m1166.948 196.971a.707.707 0 0 0 .019.5l-.312-.708a.7.7 0 0 1 -.019-.5 2.484 2.484 0 0 1 .312.708z" fill="#ffeb2e" transform="translate(-1127.148 -186.28)"/><path d="m1221.65 174.284-.254-.575a1.342 1.342 0 0 1 .322.445l.313.708a1.343 1.343 0 0 0 -.321-.445z" fill="#ff7a00" transform="translate(-1178.935 -164.965)"/><path d="m1212.422 169.044a1.422 1.422 0 0 0 -.828-.748l-.312-.708a1.423 1.423 0 0 1 .828.748z" fill="#ffe87f" transform="translate(-1169.375 -159.18)"/><path d="m1168.508 178.924a.69.69 0 0 1 .388 1 1.174 1.174 0 0 1 -.156.243 1.593 1.593 0 0 1 -1.668.512.677.677 0 0 1 -.437-.87 1.093 1.093 0 0 1 .205-.372 1.593 1.593 0 0 1 1.668-.513z" fill="#ff8106" transform="translate(-1127.148 -169.825)"/><path d="m1169.867 187 .313.708a.744.744 0 0 1 -.03.623 1.173 1.173 0 0 1 -.156.243 1.592 1.592 0 0 1 -1.668.512.72.72 0 0 1 -.418-.374l-.312-.708a.72.72 0 0 0 .418.374 1.593 1.593 0 0 0 1.668-.512 1.16 1.16 0 0 0 .156-.243.743.743 0 0 0 .029-.623z" fill="#ff8106" transform="translate(-1128.089 -177.524)"/><path d="m1168.044 196.377a1.1 1.1 0 0 1 -.2.371 1.593 1.593 0 0 1 -1.668.512.689.689 0 0 1 -.387-1 .677.677 0 0 0 .437.87 1.593 1.593 0 0 0 1.668-.512 1.17 1.17 0 0 0 .15-.241z" fill="#ffeb2e" transform="translate(-1126.297 -186.28)"/><path d="m1167.424 199.932a.719.719 0 0 1 -.418-.374l-.313-.708a.72.72 0 0 0 .418.374 1.593 1.593 0 0 0 1.668-.512 1.1 1.1 0 0 0 .205-.371l.312.708a1.093 1.093 0 0 1 -.2.371 1.594 1.594 0 0 1 -1.672.512z" fill="#ffeb2e" transform="translate(-1127.237 -188.244)"/><path d="m1127.875 186.653a.053.053 0 0 0 0 .013l-.312-.708a.044.044 0 0 1 0-.013c-.053-.423-.284-2.767.877-4.184a3.494 3.494 0 0 1 .45-.455l.313.708a3.494 3.494 0 0 0 -.45.455c-1.162 1.417-.931 3.76-.878 4.184z" fill="#ff7a00" transform="translate(-1090.204 -172.145)"/><path d="m1135.2 186.243v.007l-.312-.708v-.007c-.126-.424-.012-3.077.86-4.142q.036-.044.075-.086l.313.708q-.04.043-.076.086c-.877 1.065-.991 3.717-.86 4.142z" fill="#ffe87f" transform="translate(-1097.133 -172.145)"/><path d="m1140.649 181.2.312.708a1.776 1.776 0 0 1 -.361 1.809c-.966 1.182-3.968 2.275-4.526 2.463a.089.089 0 0 1 -.061 0 .06.06 0 0 1 -.033-.031l-.312-.708a.058.058 0 0 0 .033.031.088.088 0 0 0 .06 0c.558-.188 3.56-1.28 4.526-2.463a1.776 1.776 0 0 0 .362-1.809z" fill="#ffbe00" transform="translate(-1097.915 -172.047)"/><path d="m1128.9 187.167a.05.05 0 0 1 -.029-.026l-.312-.708a.049.049 0 0 0 .029.026.094.094 0 0 0 .064 0c.557-.188 3.615-1.268 4.822-2.67a1.892 1.892 0 0 0 .5-1.979l.313.708a1.891 1.891 0 0 1 -.505 1.978c-1.207 1.4-4.264 2.482-4.822 2.67a.1.1 0 0 1 -.06.001z" fill="#ffe87f" transform="translate(-1091.198 -172.62)"/><path d="m1129.26 178.871.312.708a2.091 2.091 0 0 1 -.558 2.188c-1.187 1.379-3.99 2.475-5.031 2.847a.425.425 0 0 1 -.291.007.22.22 0 0 1 -.127-.113l-.313-.708a.22.22 0 0 0 .127.113.425.425 0 0 0 .291-.007c1.042-.373 3.844-1.469 5.031-2.847a2.092 2.092 0 0 0 .559-2.188z" fill="#e87118" transform="translate(-1086.182 -169.844)"/><path d="m1127.412 160.326c1.234.474 1.5 1.789.411 3.052-1.186 1.379-3.99 2.475-5.031 2.847a.424.424 0 0 1 -.29.007.206.206 0 0 1 -.143-.175 6.511 6.511 0 0 1 .995-4.4 3.921 3.921 0 0 1 4.058-1.331zm.169 3c.983-1.142.744-2.331-.372-2.76a3.241 3.241 0 0 0 -3.219.753 3.472 3.472 0 0 0 -.45.455c-1.161 1.417-.93 3.76-.877 4.184a.047.047 0 0 0 .032.039.1.1 0 0 0 .064 0c.558-.188 3.615-1.268 4.822-2.67" fill="#ff7a00" transform="translate(-1085.304 -152.162)"/><path d="m1132.109 167.588c1.116.428 1.355 1.617.372 2.759-1.207 1.4-4.264 2.482-4.822 2.67a.1.1 0 0 1 -.064 0 .047.047 0 0 1 -.032-.039c-.053-.423-.284-2.767.877-4.184a3.5 3.5 0 0 1 .45-.455q-.039.043-.075.086c-.873 1.065-.986 3.718-.86 4.142a.057.057 0 0 0 .036.038.089.089 0 0 0 .061 0c.557-.188 3.56-1.28 4.525-2.463a1.536 1.536 0 0 0 -.468-2.554z" fill="#ffe87f" transform="translate(-1090.204 -159.18)"/><path d="m1137.9 164.672h-.057a3.473 3.473 0 0 0 -.392.057q-.083.017-.166.038a3.438 3.438 0 0 0 -.96.4l-.044.028-.086.058-.042.03a2.3 2.3 0 0 0 -.331.291q-.039.043-.075.086c-.872 1.065-.986 3.718-.86 4.142a.058.058 0 0 0 .036.038.088.088 0 0 0 .06 0c.557-.188 3.56-1.28 4.526-2.463a1.536 1.536 0 0 0 -.467-2.557 2.329 2.329 0 0 0 -.365-.106l-.108-.02-.109-.015-.11-.011h-.056a3.1 3.1 0 0 0 -.394.004zm.6.845a.69.69 0 0 1 .388 1 1.094 1.094 0 0 1 -.205.371 1.593 1.593 0 0 1 -1.668.512.689.689 0 0 1 -.387-1 1.1 1.1 0 0 1 .205-.372 1.593 1.593 0 0 1 1.667-.512" fill="#ffbe00" transform="translate(-1097.133 -156.417)"/></g></g></svg>